<?xml version="1.0" standalone="no"?>
<!DOCTYPE svg PUBLIC "-//W3C//DTD SVG 20010904//EN"
 "http://www.w3.org/TR/2001/REC-SVG-20010904/DTD/svg10.dtd">
<svg version="1.0" xmlns="http://www.w3.org/2000/svg"
 width="113.000000pt" height="104.000000pt" viewBox="0 0 113.000000 104.000000"
 preserveAspectRatio="xMidYMid meet">

<g transform="translate(0.000000,104.000000) scale(0.100000,-0.100000)"
fill="#000000" stroke="none">
<path d="M0 520 l0 -520 565 0 565 0 0 520 0 520 -565 0 -565 0 0 -520z m556
105 c42 -63 77 -115 78 -115 2 0 36 52 77 115 49 76 80 115 92 115 12 0 43
-39 93 -115 86 -132 87 -105 -14 -257 -36 -54 -71 -98 -78 -98 -8 0 -46 48
-85 108 -39 59 -75 111 -80 116 -4 5 -42 -44 -85 -108 -56 -87 -81 -116 -94
-114 -14 2 -212 290 -314 456 -6 9 30 12 164 12 l170 0 76 -115z"/>
</g>
</svg>
