<svg width="144" height="60" viewBox="0 0 144 60" fill="none" xmlns="http://www.w3.org/2000/svg"><g id="logo 1" clip-path="url(#clip0_77_2)"><g id="Group 3718"><g id="Group 3716"><g id="rotate"><mask id="mask0_77_2" style="mask-type:luminance" maskUnits="userSpaceOnUse" x="86" y="0" width="58" height="60"><g id="clip-path"><path id="Rectangle 2" d="M144 0H86.642V60H144V0Z" fill="white"/></g></mask><g mask="url(#mask0_77_2)"><g id="Group 3715"><path id="sale" style="transform-box: fill-box; animation: bounce-in-fwd 8s linear infinite; transform-origin: center;" d="M119.326 30C119.327 30.7923 119.093 31.5672 118.653 32.2264C118.214 32.8857 117.589 33.3998 116.857 33.7037C116.125 34.0076 115.32 34.0876 114.543 33.9337C113.765 33.7797 113.051 33.3987 112.491 32.8387C111.93 32.2788 111.548 31.5652 111.393 30.7882C111.238 30.0112 111.317 29.2056 111.62 28.4735C111.923 27.7414 112.437 27.1156 113.095 26.6753C113.754 26.235 114.529 26 115.321 26C115.847 25.9993 116.367 26.1023 116.853 26.3031C117.339 26.5038 117.781 26.7983 118.153 27.1698C118.525 27.5413 118.82 27.9825 119.021 28.4681C119.222 28.9537 119.326 29.4743 119.326 30Z" fill="#FFC258"/><path id="rotate_2" style="transform-box: fill-box; animation: spin 8s linear infinite; transform-origin: center;" d="M144 20.6L139.8 14.9L134.135 16.648L137.612 11.932L132.788 5.391L126.042 3.31L122.542 8.059V2.228L115.321 0L108.104 2.228V8.058L104.604 3.309L97.853 5.392L93.03 11.929L96.507 16.645L90.842 14.9L86.642 20.594V28.7L90.854 30L86.642 31.3V39.4L90.85 45.1L96.51 43.355L93.035 48.065L97.863 54.611L104.602 56.692L108.102 51.941V57.772L115.321 60L122.542 57.774V51.943L126.042 56.694L132.78 54.614L137.61 48.067L134.132 43.355L139.793 45.1L144 39.4V31.3L139.789 30L144.001 28.7L144 20.6ZM126.949 6.068L131.349 7.423L134.671 11.928L130.327 17.821L122.543 20.221V12.05L126.949 6.068ZM123.272 32.618L120.172 33.577V36.569L117.183 35.645L115.325 38.166L113.465 35.645L110.476 36.569V33.577L107.376 32.618L109.3 30L107.37 27.382L110.47 26.425V23.434L113.457 24.356L115.315 21.838L117.172 24.356L120.161 23.434V26.426L123.267 27.383L121.342 30L123.272 32.618ZM120.172 20.955L118.089 21.598L116.792 19.842L120.17 15.262L120.172 20.955ZM112.557 21.598L110.474 20.955V15.262L113.852 19.842L112.557 21.598ZM108.109 24.679L105.883 25.366L102.683 21.031L108.107 22.7L108.109 24.679ZM106.358 30L104.972 31.881L98.884 30L104.973 28.121L106.358 30ZM105.88 34.636L108.104 35.322V37.3L102.683 38.972L105.88 34.636ZM110.472 39.046L112.553 38.402L113.853 40.159L110.472 44.74V39.046ZM118.088 38.402L120.17 39.046V44.74L116.792 40.162L118.088 38.402ZM122.538 37.302V35.324L124.761 34.638L127.961 38.972L122.538 37.302ZM125.671 31.883L124.285 30L125.668 28.122L131.757 30L125.671 31.883ZM122.535 24.683V22.7L127.958 21.028L124.758 25.363L122.535 24.683ZM110.472 3.975L115.321 2.475L120.17 3.975V11.275L115.321 17.851L110.472 11.271V3.975ZM99.296 7.426L103.696 6.069L108.107 12.051V20.225L100.321 17.825L95.974 11.929L99.296 7.426ZM89.01 21.373L91.751 17.656L98.876 19.856L103.485 26.106L94.869 28.764L89.01 26.956V21.373ZM89.01 38.619V33.049L94.867 31.242L103.482 33.9L98.875 40.149L91.758 42.349L89.01 38.619ZM103.694 53.935L99.306 52.58L95.978 48.067L100.318 42.182L108.104 39.782V47.956L103.694 53.935ZM115.321 57.522L110.472 56.022V48.734L115.32 42.157L120.169 48.732V56.027L115.321 57.522ZM131.336 52.582L126.95 53.935L122.542 47.953V39.779L130.328 42.179L134.669 48.064L131.336 52.582ZM141.636 38.619L138.887 42.344L131.769 40.144L127.16 33.9L135.775 31.243L141.633 33.05L141.636 38.619ZM141.636 26.956L135.772 28.764L127.158 26.1L131.766 19.85L138.89 17.65L141.633 21.368L141.636 26.956Z" fill="#3B8C67"/></g></g></g></g><g id="Group 3717"><path id="Path 4" d="M22.36 24.68C20.29 24.68 19.33 24.23 19.33 21.98V8H15.34V26.6C15.34 29.81 13.06 31.46 9.87996 31.46C6.36996 31.46 4.29997 29.81 4.29997 26.45C4.36726 24.637 4.78495 22.8542 5.52996 21.2L2.28997 20.03C1.0857 22.368 0.458237 24.9601 0.459964 27.59C0.459964 32.9 3.72997 36.5 9.54997 36.5C14.59 36.5 17.68 33.47 18.43 28.55C19.4707 29.3872 20.787 29.8046 22.12 29.72L22.63 29.63L22.87 24.77L22.36 24.68ZM21.61 29.57L22.12 29.72H27.73L28.21 29.57L28.45 24.83L27.94 24.68H22.36L21.85 24.89L21.61 29.57ZM27.19 29.57L27.7 29.72H33.31L33.79 29.57L34.03 24.83L33.52 24.68H27.94L27.43 24.89L27.19 29.57ZM32.77 29.57L33.28 29.72H38.89L39.37 29.57L39.61 24.83L39.1 24.68H33.52L33.01 24.89L32.77 29.57ZM49.15 24.68C46.72 24.68 46.03 24.23 46.03 21.77V17.63H42.22V21.98C42.22 24.26 41.41 24.68 39.1 24.68L38.59 24.77L38.35 29.63L38.86 29.72C41.56 29.72 43.03 28.52 43.66 26.69C44.44 28.73 46.21 29.72 48.91 29.72L49.42 29.63L49.66 24.77L49.15 24.68ZM42.01 31.64C41.533 31.6413 41.0759 31.8314 40.7386 32.1687C40.4014 32.5059 40.2113 32.963 40.21 33.44C40.2113 33.917 40.4014 34.3741 40.7386 34.7113C41.0759 35.0486 41.533 35.2387 42.01 35.24C42.2469 35.2419 42.4818 35.1966 42.701 35.1068C42.9202 35.017 43.1194 34.8845 43.2869 34.7169C43.4544 34.5494 43.5869 34.3503 43.6767 34.131C43.7665 33.9118 43.8118 33.6769 43.81 33.44C43.8086 32.963 43.6186 32.5059 43.2813 32.1687C42.944 31.8314 42.4869 31.6413 42.01 31.64ZM46.33 31.64C46.0915 31.6376 45.8549 31.6823 45.6338 31.7716C45.4126 31.8608 45.2113 31.9929 45.0413 32.1601C44.8713 32.3273 44.7359 32.5265 44.643 32.7461C44.5502 32.9657 44.5015 33.2015 44.5 33.44C44.4965 33.6799 44.5416 33.918 44.6328 34.1399C44.7239 34.3619 44.859 34.5631 45.0301 34.7313C45.2011 34.8995 45.4045 35.0314 45.6279 35.1188C45.8513 35.2062 46.0902 35.2475 46.33 35.24C46.5646 35.2387 46.7966 35.191 47.0127 35.0997C47.2288 35.0084 47.4248 34.8753 47.5893 34.7081C47.7538 34.5408 47.8836 34.3426 47.9712 34.125C48.0588 33.9074 48.1026 33.6746 48.1 33.44C48.1026 33.2054 48.0588 32.9726 47.9712 32.755C47.8836 32.5374 47.7538 32.3392 47.5893 32.1719C47.4248 32.0047 47.2288 31.8716 47.0127 31.7803C46.7966 31.689 46.5646 31.6413 46.33 31.64ZM49.15 12.77C49.1513 13.0046 49.1989 13.2366 49.2902 13.4527C49.3815 13.6689 49.5146 13.8648 49.6819 14.0293C49.8492 14.1938 50.0473 14.3236 50.265 14.4112C50.4826 14.4989 50.7154 14.5426 50.95 14.54C51.1846 14.5426 51.4174 14.4989 51.635 14.4112C51.8526 14.3236 52.0507 14.1938 52.218 14.0293C52.3853 13.8648 52.5184 13.6689 52.6097 13.4527C52.701 13.2366 52.7487 13.0046 52.75 12.77C52.7486 12.293 52.5586 11.8359 52.2213 11.4987C51.884 11.1614 51.427 10.9713 50.95 10.97C50.473 10.9713 50.0159 11.1614 49.6786 11.4987C49.3414 11.8359 49.1513 12.293 49.15 12.77ZM53.44 12.77C53.4395 13.0077 53.4871 13.243 53.5796 13.4618C53.6722 13.6807 53.808 13.8787 53.9788 14.0439C54.1496 14.2091 54.352 14.3382 54.5739 14.4235C54.7957 14.5087 55.0325 14.5483 55.27 14.54C55.503 14.5421 55.7341 14.4978 55.9498 14.4096C56.1655 14.3214 56.3615 14.1911 56.5263 14.0263C56.6911 13.8616 56.8214 13.6656 56.9096 13.4499C56.9978 13.2342 57.0421 13.003 57.04 12.77C57.0426 12.5354 56.9988 12.3026 56.9112 12.085C56.8236 11.8674 56.6938 11.6692 56.5293 11.5019C56.3648 11.3347 56.1688 11.2016 55.9527 11.1103C55.7366 11.019 55.5046 10.9713 55.27 10.97C55.0315 10.9676 54.7949 11.0123 54.5738 11.1016C54.3526 11.1908 54.1513 11.3229 53.9813 11.4901C53.8113 11.6573 53.6759 11.8565 53.583 12.0761C53.4902 12.2957 53.4415 12.5315 53.44 12.77ZM48.88 29.72C53.53 29.72 55.93 26.84 55.93 22.22C55.8836 20.1173 55.5194 18.0338 54.85 16.04L51.22 17.12C51.7032 18.8655 52.0146 20.654 52.15 22.46C52.15 23.96 51.25 24.68 49.12 24.68L48.61 24.92L48.37 29.51L48.88 29.72ZM66.97 24.68C66.6935 22.477 66.2827 20.2929 65.74 18.14L62.02 19.22C62.6324 21.7536 63.0437 24.3316 63.25 26.93C63.25 29.21 61.6 31.37 57.82 31.37C57.1182 31.3732 56.4168 31.3331 55.72 31.25L55.45 35.87C56.5154 36.2132 57.6309 36.3755 58.75 36.35C62.77 36.35 65.68 33.68 66.67 29.72H68.89L69.4 29.51L69.64 24.89L69.13 24.68H66.97ZM68.02 12.77C68.0213 13.0046 68.0689 13.2366 68.1602 13.4527C68.2515 13.6689 68.3846 13.8648 68.5519 14.0293C68.7192 14.1938 68.9173 14.3236 69.135 14.4112C69.3526 14.4989 69.5854 14.5426 69.82 14.54C70.0546 14.5426 70.2874 14.4989 70.505 14.4112C70.7226 14.3236 70.9207 14.1938 71.088 14.0293C71.2553 13.8648 71.3884 13.6689 71.4797 13.4527C71.571 13.2366 71.6187 13.0046 71.62 12.77C71.6186 12.293 71.4286 11.8359 71.0913 11.4987C70.754 11.1614 70.297 10.9713 69.82 10.97C69.343 10.9713 68.8859 11.1614 68.5486 11.4987C68.2113 11.8359 68.0213 12.293 68.02 12.77ZM72.31 12.77C72.3096 13.0077 72.3571 13.243 72.4496 13.4618C72.5422 13.6807 72.678 13.8787 72.8488 14.0439C73.0196 14.2091 73.222 14.3382 73.4439 14.4235C73.6657 14.5087 73.9025 14.5483 74.14 14.54C74.373 14.5421 74.6041 14.4978 74.8198 14.4096C75.0355 14.3214 75.2315 14.1911 75.3963 14.0263C75.5611 13.8616 75.6914 13.6656 75.7796 13.4499C75.8678 13.2342 75.9121 13.003 75.91 12.77C75.9126 12.5354 75.8688 12.3026 75.7812 12.085C75.6936 11.8674 75.5638 11.6692 75.3993 11.5019C75.2348 11.3347 75.0388 11.2016 74.8227 11.1103C74.6066 11.019 74.3746 10.9713 74.14 10.97C73.9015 10.9676 73.6649 11.0123 73.4438 11.1016C73.2226 11.1908 73.0213 11.3229 72.8513 11.4901C72.6813 11.6573 72.5459 11.8565 72.453 12.0761C72.3602 12.2957 72.3115 12.5315 72.31 12.77ZM67.75 29.72C72.4 29.72 74.8 26.84 74.8 22.22C74.7536 20.1173 74.3894 18.0338 73.72 16.04L70.09 17.12C70.5732 18.8655 70.8847 20.654 71.02 22.46C71.02 23.96 70.12 24.68 67.99 24.68L67.48 24.92L67.24 29.51L67.75 29.72Z" fill="#3B8C67"/><path id="Path 3" d="M2.87199 45.89C2.99534 45.8879 3.11289 45.8372 3.19917 45.7491C3.28546 45.6609 3.33354 45.5423 3.333 45.419C3.33354 45.2956 3.28546 45.177 3.19917 45.0888C3.11289 45.0007 2.99534 44.9501 2.87199 44.948C2.80997 44.9478 2.74854 44.9599 2.69122 44.9836C2.63389 45.0073 2.5818 45.0421 2.53795 45.0859C2.49409 45.1298 2.45933 45.1819 2.43565 45.2392C2.41198 45.2965 2.39986 45.3579 2.39999 45.42C2.40013 45.4818 2.41244 45.543 2.43623 45.6001C2.46002 45.6572 2.49483 45.7091 2.53866 45.7527C2.58249 45.7964 2.63448 45.8309 2.69167 45.8545C2.74887 45.878 2.81014 45.8901 2.87199 45.89ZM5.8 48.58C5.74545 47.81 5.60045 47.0491 5.368 46.313L4.73399 46.495C4.98565 47.2989 5.13418 48.1316 5.17599 48.973C5.17599 50.106 4.283 50.74 2.876 50.74C1.469 50.74 0.624001 50.135 0.624001 48.877C0.650551 48.2602 0.794096 47.6541 1.047 47.091L0.489998 46.891C0.17801 47.558 0.0110066 48.2836 0 49.02C0 50.528 1.028 51.536 2.824 51.536C3.49547 51.6114 4.17071 51.4311 4.7152 51.031C5.25969 50.6309 5.63344 50.0403 5.76199 49.377H6.751L6.91399 49.348L6.94299 48.608L6.78 48.579L5.8 48.58ZM6.751 49.38C7.00065 49.3981 7.25124 49.3614 7.48524 49.2725C7.71924 49.1837 7.93099 49.0447 8.10568 48.8655C8.28037 48.6862 8.41378 48.4709 8.49657 48.2347C8.57937 47.9985 8.60955 47.7471 8.585 47.498C8.56062 46.8376 8.47051 46.1814 8.31599 45.539L7.701 45.683C7.84657 46.3139 7.93328 46.957 7.96 47.604C7.96 48.286 7.56 48.584 6.779 48.584L6.616 48.613L6.587 49.353L6.751 49.38ZM7.15099 51.003C7.20877 51.0037 7.26609 50.9927 7.31949 50.9706C7.37288 50.9485 7.42124 50.9158 7.46163 50.8745C7.50202 50.8331 7.5336 50.784 7.55446 50.7302C7.57532 50.6763 7.58503 50.6187 7.583 50.561C7.58419 50.5038 7.57403 50.447 7.55311 50.3938C7.53218 50.3406 7.50091 50.2921 7.4611 50.2511C7.42129 50.2101 7.37373 50.1773 7.32119 50.1548C7.26865 50.1323 7.21216 50.1205 7.155 50.12C7.03818 50.1213 6.92651 50.1682 6.84389 50.2509C6.76128 50.3335 6.7143 50.4451 6.713 50.562C6.71533 50.6781 6.76277 50.7887 6.84527 50.8705C6.92777 50.9523 7.03886 50.9987 7.155 51L7.15099 51.003ZM8.361 51.003C8.47798 51.0014 8.58963 50.9538 8.67179 50.8705C8.75395 50.7872 8.80001 50.6749 8.8 50.558C8.79821 50.4429 8.7519 50.3329 8.67079 50.2513C8.58968 50.1696 8.48008 50.1225 8.365 50.12C8.30669 50.119 8.24879 50.1298 8.19474 50.1517C8.14069 50.1736 8.09158 50.2061 8.05035 50.2473C8.00911 50.2885 7.97659 50.3376 7.95471 50.3917C7.93283 50.4458 7.92205 50.5037 7.923 50.562C7.92259 50.6199 7.93378 50.6774 7.95589 50.731C7.97801 50.7846 8.01062 50.8332 8.0518 50.874C8.09297 50.9148 8.14189 50.947 8.19568 50.9686C8.24946 50.9902 8.30703 51.0009 8.365 51L8.361 51.003ZM15.478 48.583C14.787 48.583 14.287 48.449 14.287 47.483V42.633H13.653V47.433C13.653 48.288 13.125 48.528 12.328 48.576L11.028 43.841L10.404 44.062L11.662 48.585H9.299V49.385H11.931C12.3158 49.4295 12.7052 49.3593 13.0503 49.1834C13.3955 49.0075 13.6809 48.7335 13.871 48.396C14.025 49.096 14.659 49.385 15.446 49.385L15.609 49.356L15.638 48.616L15.478 48.583ZM16.378 44.674C16.5013 44.6719 16.6189 44.6212 16.7052 44.5331C16.7915 44.4449 16.8395 44.3263 16.839 44.203C16.8395 44.0796 16.7915 43.961 16.7052 43.8728C16.6189 43.7847 16.5013 43.7341 16.378 43.732C16.2531 43.732 16.1333 43.7816 16.0449 43.8699C15.9566 43.9582 15.907 44.078 15.907 44.203C15.9074 44.2651 15.9201 44.3265 15.9443 44.3837C15.9685 44.4409 16.0038 44.4927 16.0481 44.5362C16.0925 44.5797 16.145 44.614 16.2026 44.6371C16.2602 44.6603 16.3219 44.6718 16.384 44.671L16.378 44.674ZM15.158 49.38C15.4087 49.3994 15.6605 49.3636 15.8958 49.275C16.1311 49.1865 16.3441 49.0473 16.5198 48.8675C16.6955 48.6876 16.8295 48.4714 16.9125 48.2341C16.9955 47.9967 17.0253 47.7441 17 47.494C16.9756 46.8336 16.8855 46.1774 16.731 45.535L16.116 45.679C16.2616 46.3099 16.3483 46.953 16.375 47.6C16.375 48.282 15.975 48.58 15.194 48.58L15.031 48.609L15.002 49.349L15.158 49.38ZM20.248 45.48C19.9729 45.4798 19.7006 45.5366 19.4485 45.6468C19.1964 45.757 18.9698 45.9182 18.7831 46.1202C18.5963 46.3223 18.4535 46.5609 18.3634 46.8209C18.2734 47.0809 18.2382 47.3567 18.26 47.631C18.2455 47.8614 18.2822 48.0921 18.3674 48.3067C18.4526 48.5212 18.5842 48.7143 18.7528 48.872C18.9214 49.0297 19.1228 49.1482 19.3426 49.2189C19.5624 49.2896 19.7951 49.3108 20.024 49.281C20.322 49.3022 20.6203 49.2441 20.8886 49.1126C21.1568 48.981 21.3854 48.7806 21.551 48.532C21.513 49.464 20.744 50.606 18.881 50.606C18.4843 50.6102 18.0884 50.5716 17.7 50.491L17.623 51.24C18.0203 51.3498 18.4308 51.4047 18.843 51.403C19.2947 51.4501 19.7512 51.3953 20.179 51.2426C20.6067 51.09 20.9948 50.8433 21.3146 50.5208C21.6344 50.1984 21.8778 49.8082 22.0269 49.3792C22.1759 48.9502 22.2269 48.4933 22.176 48.042C22.176 46.688 21.484 45.477 20.255 45.477L20.248 45.48ZM20.085 48.486C19.365 48.486 18.885 48.15 18.885 47.545C18.8825 47.3761 18.9142 47.2086 18.9782 47.0523C19.0423 46.8961 19.1373 46.7545 19.2576 46.636C19.3778 46.5175 19.5209 46.4246 19.678 46.3629C19.8352 46.3012 20.0032 46.2719 20.172 46.277C21.046 46.277 21.43 47.151 21.526 47.746C21.3832 47.9938 21.172 48.1952 20.9177 48.3261C20.6633 48.457 20.3767 48.5118 20.092 48.484L20.085 48.486ZM23.715 42.243C23.388 42.243 23.206 42.099 23.206 41.926C23.206 41.734 23.417 41.599 23.638 41.599C23.8015 41.6042 23.9565 41.6731 24.07 41.791L24.31 41.426C24.2385 41.3098 24.1381 41.2141 24.0185 41.1484C23.899 41.0827 23.7644 41.0491 23.628 41.051C23.5202 41.0475 23.4128 41.0658 23.3122 41.1049C23.2117 41.1439 23.1201 41.2029 23.0429 41.2783C22.9657 41.3537 22.9046 41.4439 22.8632 41.5435C22.8218 41.6431 22.801 41.7501 22.802 41.858C22.7961 41.9339 22.8068 42.0101 22.8334 42.0815C22.86 42.1528 22.9018 42.2175 22.956 42.271H22.656V42.742H24.375V42.242L23.715 42.243ZM23.84 49.379V43.309H23.206V49.379H23.84ZM30.131 45.211C30.2543 45.2089 30.3719 45.1582 30.4582 45.0701C30.5445 44.9819 30.5925 44.8633 30.592 44.74C30.5925 44.6166 30.5445 44.498 30.4582 44.4098C30.3719 44.3217 30.2543 44.2711 30.131 44.269C30.0061 44.269 29.8863 44.3186 29.798 44.4069C29.7096 44.4952 29.66 44.615 29.66 44.74C29.6603 44.8022 29.6728 44.8637 29.697 44.921C29.7212 44.9783 29.7564 45.0302 29.8008 45.0739C29.8451 45.1175 29.8977 45.1518 29.9554 45.175C30.0131 45.1982 30.0748 45.2098 30.137 45.209L30.131 45.211ZM33.137 48.159C33.1086 47.3034 32.9616 46.456 32.7 45.641L32.066 45.823C32.3177 46.6269 32.4662 47.4596 32.508 48.301C32.508 49.434 31.615 50.068 30.208 50.068C28.801 50.068 27.951 49.463 27.951 48.205C27.9796 47.5881 28.1252 46.9824 28.38 46.42L27.823 46.22C27.5106 46.8879 27.3436 47.6146 27.333 48.352C27.333 49.86 28.361 50.868 30.157 50.868C30.5368 50.9137 30.9219 50.8772 31.2863 50.7609C31.6508 50.6447 31.9859 50.4515 32.2691 50.1944C32.5523 49.9373 32.7769 49.6223 32.9277 49.2707C33.0785 48.9192 33.1519 48.5394 33.143 48.157L33.137 48.159ZM36.018 42.059C35.8284 42.1184 35.6306 42.1474 35.432 42.145C34.971 42.145 34.644 41.963 34.212 41.963C33.9509 41.9633 33.6962 42.0436 33.482 42.193V42.693C33.6825 42.6083 33.8983 42.5657 34.116 42.568C34.462 42.568 34.798 42.75 35.268 42.75C35.5287 42.761 35.7875 42.7012 36.017 42.577L36.018 42.059ZM34.44 49.377H35.074V43.307H34.44V49.377ZM38.56 48.577C38.5068 47.7791 38.3945 46.9862 38.224 46.205L37.6 46.359C37.782 47.2033 37.8977 48.0606 37.946 48.923C37.9375 49.1772 37.8767 49.4271 37.7674 49.6568C37.6581 49.8865 37.5026 50.0912 37.3106 50.2582C37.1186 50.4251 36.8942 50.5507 36.6515 50.627C36.4088 50.7034 36.153 50.7289 35.9 50.702C35.6817 50.7037 35.4636 50.691 35.247 50.664L35.17 51.413C35.4089 51.4714 35.6541 51.5003 35.9 51.499C36.5197 51.522 37.1268 51.3197 37.6089 50.9296C38.0909 50.5394 38.4153 49.9879 38.522 49.377H39.444L39.607 49.348L39.636 48.608L39.473 48.579L38.56 48.577ZM41.153 43.9C41.2108 43.9007 41.2681 43.8897 41.3215 43.8676C41.3749 43.8455 41.4232 43.8128 41.4636 43.7715C41.504 43.7301 41.5356 43.681 41.5565 43.6272C41.5773 43.5733 41.587 43.5157 41.585 43.458C41.5863 43.4004 41.5761 43.3431 41.555 43.2896C41.5339 43.236 41.5023 43.1872 41.4621 43.146C41.4218 43.1048 41.3737 43.0721 41.3207 43.0498C41.2676 43.0274 41.2106 43.0159 41.153 43.016C41.0362 43.0173 40.9245 43.0642 40.8419 43.1469C40.7593 43.2295 40.7123 43.3411 40.711 43.458C40.7118 43.5751 40.7585 43.6873 40.8412 43.7704C40.9239 43.8534 41.0358 43.9007 41.153 43.902V43.9ZM42.363 43.9C42.4782 43.8966 42.5877 43.8486 42.6682 43.7662C42.7488 43.6837 42.7943 43.5732 42.795 43.458C42.7943 43.3427 42.7488 43.2322 42.6682 43.1497C42.5877 43.0673 42.4782 43.0193 42.363 43.016C42.3047 43.015 42.2468 43.0258 42.1927 43.0477C42.1387 43.0696 42.0896 43.1021 42.0483 43.1433C42.0071 43.1845 41.9746 43.2336 41.9527 43.2877C41.9308 43.3418 41.9201 43.3997 41.921 43.458C41.9198 43.5164 41.9304 43.5745 41.9521 43.6288C41.9739 43.6831 42.0064 43.7325 42.0476 43.7739C42.0889 43.8154 42.1381 43.8481 42.1923 43.8701C42.2465 43.8921 42.3045 43.9029 42.363 43.902V43.9ZM44.14 48.58C43.5955 48.5863 43.0518 48.538 42.517 48.436C42.815 48.2682 43.0645 48.0261 43.2412 47.7333C43.4178 47.4404 43.5156 47.1068 43.525 46.765C43.5414 46.519 43.5083 46.2722 43.4279 46.0392C43.3474 45.8061 43.2211 45.5916 43.0564 45.4081C42.8918 45.2246 42.6921 45.0759 42.4691 44.9708C42.2461 44.8657 42.0043 44.8062 41.758 44.796C41.4989 44.8067 41.2445 44.8688 41.0096 44.9787C40.7747 45.0886 40.564 45.2441 40.3897 45.4362C40.2155 45.6282 40.0811 45.853 39.9944 46.0974C39.9078 46.3418 39.8706 46.601 39.885 46.86C39.8965 47.1765 39.9825 47.4858 40.1361 47.7628C40.2898 48.0398 40.5066 48.2766 40.769 48.454C40.2771 48.5374 39.779 48.5792 39.28 48.579L39.117 48.608L39.088 49.348L39.251 49.377C40.0672 49.3983 40.8788 49.2477 41.633 48.935C42.4232 49.2392 43.2643 49.3892 44.111 49.377L44.274 49.348L44.303 48.608L44.14 48.58ZM40.5 46.764C40.5005 46.6078 40.5321 46.4533 40.5929 46.3095C40.6537 46.1657 40.7426 46.0355 40.8543 45.9264C40.966 45.8173 41.0983 45.7315 41.2435 45.6741C41.3887 45.6167 41.5439 45.5888 41.7 45.592C41.8636 45.5929 42.0253 45.6268 42.1755 45.6916C42.3257 45.7564 42.4613 45.8507 42.5742 45.9691C42.6871 46.0874 42.7751 46.2273 42.8327 46.3803C42.8904 46.5334 42.9167 46.6965 42.91 46.86C42.91 47.427 42.449 47.888 41.681 48.195C41.3599 48.1087 41.0735 47.9246 40.8619 47.6681C40.6502 47.4117 40.5237 47.0956 40.5 46.764ZM45.331 42.625V47.62C45.331 48.446 44.841 48.58 44.14 48.58L43.977 48.609L43.948 49.349L44.111 49.377C44.3627 49.4037 44.6172 49.3745 44.8556 49.2896C45.094 49.2046 45.3103 49.0671 45.4883 48.8872C45.6664 48.7073 45.8017 48.4897 45.8842 48.2504C45.9667 48.0111 45.9943 47.7564 45.965 47.505V42.625H45.331ZM48.131 49.377V42.625H47.5V49.377H48.131ZM58.657 48.577C58.3495 48.6077 58.0401 48.5405 57.773 48.385C57.9593 48.0752 58.0527 47.7183 58.042 47.357C58.0482 47.0875 58.0012 46.8196 57.9036 46.5684C57.8061 46.3172 57.6598 46.0877 57.4734 45.8932C57.2869 45.6986 57.0638 45.5428 56.817 45.4346C56.5702 45.3265 56.3044 45.2682 56.035 45.263C55.4651 45.3144 54.9152 45.4983 54.429 45.8001C53.9429 46.1019 53.534 46.5131 53.235 47.001C53.3678 46.5942 53.4422 46.1706 53.456 45.743V42.625H52.822V47.6C52.63 47.9 52.438 48.224 52.255 48.58H51.429V49.38H55.242C55.978 49.4271 56.7103 49.2425 57.336 48.852C57.518 49.188 57.893 49.38 58.636 49.38L58.799 49.351L58.828 48.611L58.657 48.577ZM55.747 44.342C55.8703 44.3399 55.9879 44.2892 56.0742 44.2011C56.1605 44.1129 56.2085 43.9943 56.208 43.871C56.2085 43.7476 56.1605 43.629 56.0742 43.5408C55.9879 43.4527 55.8703 43.4021 55.747 43.4C55.6221 43.4 55.5023 43.4496 55.4139 43.5379C55.3256 43.6262 55.276 43.746 55.276 43.871C55.2757 43.9333 55.2878 43.9951 55.3116 44.0527C55.3355 44.1104 55.3705 44.1627 55.4146 44.2067C55.4588 44.2507 55.5113 44.2855 55.5691 44.3091C55.6268 44.3326 55.6886 44.3445 55.751 44.344L55.747 44.342ZM52.889 48.58C53.638 47.216 54.689 46.064 55.933 46.064C56.1208 46.0536 56.3088 46.0809 56.486 46.1442C56.6631 46.2075 56.8258 46.3056 56.9645 46.4326C57.1032 46.5597 57.2151 46.7132 57.2937 46.8841C57.3723 47.0551 57.4159 47.2399 57.422 47.428C57.422 48.235 56.558 48.58 55.348 48.58H52.889ZM61.677 48.58C60.909 48.58 60.486 48.446 60.486 47.48V46.111H59.852V47.475C59.852 48.455 59.324 48.575 58.661 48.575L58.498 48.604L58.469 49.344L58.632 49.373C58.9454 49.4061 59.2609 49.3325 59.5273 49.1641C59.7937 48.9957 59.9955 48.7423 60.1 48.445C60.263 49.088 60.878 49.377 61.646 49.377L61.809 49.348L61.838 48.608L61.677 48.58ZM59.564 50.12C59.4472 50.1213 59.3355 50.1682 59.2529 50.2509C59.1703 50.3335 59.1233 50.4451 59.122 50.562C59.1233 50.6788 59.1703 50.7905 59.2529 50.8731C59.3355 50.9557 59.4472 51.0027 59.564 51.004C59.6225 51.0053 59.6806 50.9945 59.7347 50.9724C59.7889 50.9503 59.8379 50.9174 59.8788 50.8756C59.9196 50.8337 59.9515 50.784 59.9724 50.7293C59.9932 50.6747 60.0026 50.6164 60 50.558C60.0008 50.5004 59.9901 50.4432 59.9685 50.3899C59.9469 50.3365 59.9148 50.288 59.8742 50.2472C59.8336 50.2064 59.7852 50.1741 59.7319 50.1522C59.6787 50.1304 59.6216 50.1194 59.564 50.12ZM60.774 50.12C60.7157 50.119 60.6578 50.1298 60.6037 50.1517C60.5497 50.1736 60.5006 50.2061 60.4594 50.2473C60.4181 50.2885 60.3856 50.3376 60.3637 50.3917C60.3418 50.4458 60.3311 50.5037 60.332 50.562C60.3311 50.6203 60.3418 50.6782 60.3637 50.7322C60.3856 50.7863 60.4181 50.8354 60.4594 50.8766C60.5006 50.9178 60.5497 50.9504 60.6037 50.9722C60.6578 50.9941 60.7157 51.0049 60.774 51.004C60.8892 51.0006 60.9987 50.9526 61.0792 50.8702C61.1598 50.7877 61.2053 50.6772 61.206 50.562C61.2053 50.4467 61.1598 50.3362 61.0792 50.2537C60.9987 50.1713 60.8892 50.1233 60.774 50.12ZM64.155 43.877C64.2783 43.8749 64.3959 43.8242 64.4822 43.7361C64.5685 43.6479 64.6165 43.5293 64.616 43.406C64.6165 43.2826 64.5685 43.164 64.4822 43.0758C64.3959 42.9877 64.2783 42.9371 64.155 42.935C64.0301 42.935 63.9103 42.9846 63.8219 43.0729C63.7336 43.1612 63.684 43.281 63.684 43.406C63.6848 43.5304 63.7348 43.6494 63.823 43.7371C63.9112 43.8248 64.0306 43.874 64.155 43.874V43.877ZM66.537 48.583C65.9925 48.5893 65.4488 48.541 64.914 48.439C65.212 48.2712 65.4615 48.0291 65.6382 47.7363C65.8148 47.4434 65.9126 47.1098 65.922 46.768C65.9384 46.522 65.9053 46.2752 65.8249 46.0422C65.7444 45.8091 65.6181 45.5946 65.4534 45.4111C65.2888 45.2276 65.0891 45.0789 64.8661 44.9738C64.6431 44.8687 64.4013 44.8092 64.155 44.799C63.8962 44.8097 63.642 44.8717 63.4073 44.9814C63.1727 45.0912 62.9621 45.2464 62.7879 45.4381C62.6136 45.6298 62.4792 45.8542 62.3924 46.0983C62.3055 46.3424 62.268 46.6013 62.282 46.86C62.2935 47.1765 62.3795 47.4858 62.5331 47.7628C62.6868 48.0398 62.9036 48.2766 63.166 48.454C62.6741 48.5374 62.176 48.5802 61.677 48.58L61.514 48.608L61.485 49.348L61.648 49.377C62.4642 49.3983 63.2758 49.2477 64.03 48.935C64.8202 49.2392 65.6613 49.3892 66.508 49.377L66.671 49.348L66.7 48.608L66.537 48.583ZM62.9 46.764C62.9005 46.6078 62.9321 46.4533 62.9929 46.3095C63.0537 46.1657 63.1426 46.0355 63.2543 45.9264C63.366 45.8173 63.4983 45.7315 63.6435 45.6741C63.7887 45.6167 63.9439 45.5888 64.1 45.592C64.2636 45.5929 64.4253 45.6268 64.5755 45.6916C64.7257 45.7564 64.8613 45.8507 64.9742 45.9691C65.0871 46.0874 65.1751 46.2273 65.2327 46.3803C65.2904 46.5334 65.3167 46.6965 65.31 46.86C65.31 47.427 64.849 47.888 64.081 48.195C63.7598 48.1087 63.4736 47.9246 63.2619 47.6681C63.0502 47.4117 62.9237 47.0956 62.9 46.764ZM73.682 48.58C72.782 48.58 72.443 48.28 72.366 47.562H73.173L73.221 46.707H72.174C71.636 46.707 71.492 46.63 70.647 46.131C70.0551 45.6668 69.3334 45.3984 68.582 45.363C68.2652 45.3525 67.9498 45.4096 67.6568 45.5302C67.3637 45.6509 67.0996 45.8325 66.882 46.063L67.189 46.582C67.5828 46.3053 68.0527 46.1575 68.534 46.159C69.1814 46.2068 69.8059 46.4184 70.349 46.774C70.628 46.918 70.839 47.043 71.021 47.139C69.7115 48.0719 68.1448 48.5754 66.537 48.58L66.374 48.609L66.345 49.349L66.508 49.377C68.3236 49.3495 70.0767 48.7106 71.483 47.562H71.829C71.887 48.676 72.252 49.377 73.654 49.377L73.817 49.348L73.846 48.608L73.682 48.58ZM73.826 44.258C73.8273 44.3748 73.8743 44.4865 73.9569 44.5691C74.0395 44.6517 74.1512 44.6987 74.268 44.7C74.3258 44.7007 74.3831 44.6897 74.4365 44.6676C74.4899 44.6455 74.5382 44.6128 74.5786 44.5715C74.619 44.5301 74.6506 44.481 74.6715 44.4272C74.6923 44.3733 74.702 44.3157 74.7 44.258C74.7008 44.2007 74.6902 44.1439 74.6689 44.0908C74.6475 44.0377 74.6158 43.9894 74.5756 43.9486C74.5354 43.9079 74.4875 43.8755 74.4347 43.8534C74.3819 43.8313 74.3252 43.82 74.268 43.82C74.1519 43.8212 74.0408 43.8677 73.9583 43.9494C73.8758 44.0312 73.8283 44.1418 73.826 44.258ZM75.036 44.258C75.035 44.3163 75.0458 44.3742 75.0677 44.4282C75.0896 44.4823 75.1221 44.5314 75.1633 44.5726C75.2046 44.6138 75.2537 44.6464 75.3077 44.6682C75.3618 44.6901 75.4197 44.7009 75.478 44.7C75.5932 44.6966 75.7027 44.6486 75.7832 44.5662C75.8638 44.4837 75.9093 44.3732 75.91 44.258C75.9082 44.1434 75.8624 44.0339 75.7819 43.9523C75.7014 43.8707 75.5925 43.8233 75.478 43.82C75.42 43.819 75.3625 43.8297 75.3087 43.8513C75.2549 43.8729 75.206 43.9051 75.1648 43.9459C75.1236 43.9867 75.091 44.0353 75.0689 44.0889C75.0468 44.1425 75.0356 44.2 75.036 44.258ZM73.654 49.377C73.9038 49.3952 74.1536 49.3587 74.3878 49.2698C74.622 49.181 74.834 49.042 75.0088 48.8626C75.1836 48.6832 75.3171 48.4677 75.3999 48.2313C75.4826 47.9949 75.5127 47.7432 75.488 47.494C75.4636 46.8336 75.3735 46.1774 75.219 45.535L74.604 45.679C74.7496 46.3099 74.8363 46.953 74.863 47.6C74.863 48.282 74.463 48.58 73.682 48.58L73.519 48.609L73.49 49.349L73.654 49.377Z" fill="black"/></g></g></g><defs><clipPath id="clip0_77_2"><rect width="144" height="60" fill="white"/></clipPath></defs><style> @keyframes spin { 0% { transform: rotate(0deg); } 100% { transform: rotate(360deg); } } @keyframes bounce-in-fwd { 0% { transform: scale(0); animation-timing-function: ease-in; opacity: 0; } 38% { transform: scale(1); animation-timing-function: ease-out; opacity: 1; } 55% { transform: scale(0.7); animation-timing-function: ease-in; } 72% { transform: scale(1); animation-timing-function: ease-out; } 81% { transform: scale(0.84); animation-timing-function: ease-in; } 89% { transform: scale(1); animation-timing-function: ease-out; } 95% { transform: scale(0.95); animation-timing-function: ease-in; } 100% { transform: scale(1); animation-timing-function: ease-out; } }</style></svg>